/* XPM */
static char *d335d9d7483249f9d782158b65b5f3045ykHCWfXNr6XwFQm[] = {
/* columns rows colors chars-per-pixel */
"64 64 43 1 ",
"  c #AFAFB0",
". c #AFB0B0",
"X c #B5B4B4",
"o c #B9B7B6",
"O c #BAB8B7",
"+ c #B7B8B8",
"@ c #BDBDBC",
"# c #C0BEBE",
"$ c #BFC0BF",
"% c #C0C0BF",
"& c #BFBFC0",
"* c #BFC0C0",
"= c #C4C5C4",
"- c #C8C7C7",
"; c #C7C8C7",
": c #C8C8C7",
"> c #C7C7C8",
", c #C7C8C8",
"< c #CCCCCB",
"1 c #CCCDCD",
"2 c gray81",
"3 c #D0CECB",
"4 c #D0CDCC",
"5 c #CFD0CF",
"6 c #D3D1CF",
"7 c #D4D2CF",
"8 c #CECFD0",
"9 c #CFD0D0",
"0 c #D0D0D0",
"q c #D5D2D1",
"w c #D3D4D3",
"e c #D6D4D2",
"r c #D3D4D4",
"t c #D7D7D7",
"y c #D8D7D5",
"u c #D7D8D7",
"i c #D9D9D7",
"p c #D8D8D8",
"a c #DBDBDA",
"s c #DBDCDB",
"d c #DCDCDB",
"f c gainsboro",
"g c #DDDDDC",
/* pixels */
"eeeq63<<<<<<446246633<<<<44666qeeeeq74<444344462264<<<<<<<<444qq",
"p<;:::;::;;;;;;r0:;::::<<::::::tp<;:::::::,;;;;r0;;::::::::::;:t",
"t<============+0t;@%====;;====@0p<==;;;=;;====+0t;@%==========@0",
"uptppppppppppd=0iptpppppddgggg:0pppdsppppdddpg=9tttpppppppdddg:0",
"ti05iuyttiiupp=0it26iiuippppgg:0pp00pittiiiipp=9tt22ttiiiiiigg:0",
"ti6;tttttttrpp;0it2;ttttttttgg:wpp0;ttttttttpp=9tt2;ttttttttgg:0",
"ti6;ttttttttpp;0ut2:ttttttttgg:tip0;ttttttttpp=0tt2;tettttttgg:w",
"ii6;ttttttttpp;0tt2:ttttttttgg:tpi0:itttttttpp=0te<;tettttttgg:0",
"ti0;tttttttrpp;0tt2:ttttttttdd:wpp0:utttttttpp=9te2;ttttttttpp:0",
"tu0;tttteetrpp=0ut2:ttttttttdd:0pp0,ttttttttpp=9te<;tttettttpp:0",
"ti2;ttt00000pp=0ut2:ttttttttgg:0ii0;ttt00tttpp=8tt<;ttttttttpp:0",
"ti0$@%=%$@@@2p=0tt2@%=======2g:0pi0$%==%%==@2p*2tt<@$=====%@2p,0",
"tu52222222222t=0tt52222296600t;0pi62222652252t=2tt2<222222220t;0",
"tpeteeeeeetttt;9tpeeeeweetttti:0tptteeeeqwtttt;9ti00000000tett:0",
"tttteettttutttttttttttttttttipipptittttttttttttttteetttteetttiti",
"2222:::::<<<:<2<<<::::::::::<2225222<<<:<222<222:::::::::::::<22",
"2000066225026522<6664224600000065e0000066000005<:<22222226660002",
"0;=;;;;;;;====;00;=;;;;;;;;;;;,te:=;,:,;;;;;;=;02;=;;;;;;;;;;;;t",
"t;O@@@@@@@@@@@ :0=o@@@@@@@@@@@X0t=@@@###@@@@@@.26%XO@@@@@@@@@@X2",
"tt0tytttyyyiyp&20t0tttttyyiiip;2tieiiiiipppppp@20e0eeettttyyyp;2",
"tt2:tee0eeeety@20w:<qqeeeeeeip;0tt22eteeeteeip@200::qqqeqqeeip;2",
"tt2=tt000000ti@2we:;000000qepp;0tt2=tq000000pp@200:=00000000pp;2",
"et2=ttew0000uy=2we<;000eetetpp;0tt2;tteetq00ip*800:=00000000pp;6",
"tt2;ttete000ip=2te2;e0eeetttpp:0tt2;ttetttewpp=20e:;0000000epp;6",
"tt2;teeett00ip=2tt2;teeeeewtpp:0tt0;ttttttteup$20e:;0000000epp;5",
"tt2;eettttt0ii=2tt2;teeettttpp;0tt6;ttttttteip*20e<;e0000eetpp;0",
"tt2=w0000000ii=2tt2;e00wwettpp;0tt5;ttttte00up=2ee:;tw00000wpd,6",
"tu6$@@@@@@@@:p=2tt2@@@@%$$@@<d;0ii0%@$$$$@@@:p=2tt2@@@@@@@@@:d:5",
"ti06566625222t=2tt22225066000t,0pi00000000955t=2tt22225622006t;5",
"tieeeeee00000e;9iiwwq00weeettt<0pieteeeeeew0ee;9tt00000000eeet:0",
"ttttttttttteettttteettettttttittptttttttttttttttte0eeeeettettttt",
"222<<::::::::<2222<::::::::<<2222222<::<<<:::<22<::::::::::::<2<",
"eeee06<66646660220066606000w00tetttee64006600002<664666660600000",
"p:;:;;;;;;;;;=;r0:;::::::::::;:tp:;:::;::;;;;;;r6;;;::::::::;;:t",
"t<======;;;===+0t;%===;;;;;;==@0p<=;;=;;;;;===+0e;@%====;;====@0",
"uptsppiippppps=9iptpppppddgggg:0pppddppppdddpg=9tt0ippppppdddg:0",
"tp06iutttiiipp=9tt26utuippppgg:0pp00piiiiiippp=9tt22tttiiiiids:0",
"ti0;ttttttttpp=9it2;ttttttttgg:0pp0;ttttttttpp=0tt2;r0wrttttsp:0",
"ti0;ttttttttpp=9ut2,ttttttttgg:tpp0;ttttttttpp=0tt2;twrtttttss:0",
"ii0;ttttetttpp=9ut2:ttttttttgg:tpp0:ptttttttpp=0tt2;ttetttttps:0",
"tu5;ttttttttpp=9tt2:ttttttttgd:0pp0,utttttttpp=2tt2,ttttttttpp:0",
"tu5;ttre0ttwpp=9tt2:ttttttttgd:0pp0;ttttttttpp=0tt2:tttettttpp:0",
"ti2;tte000w0pp=9ut2:tttttttugg:0ii9;ttt00ww0pp=9te2;ttttttttpp:0",
"ti9$@%=%@@$@<p=9tt2@========5g:0pi6$%%=%===@2p=9tt2@@$%====%2p,0",
"tu52222222222t=2tt22222200000t>0pi02225652252t=2tt22222222220t;0",
"tpeteeeeewtttt;0tpeeeeeeetttui:0tpttteeteetttt;9ti0000000eettt:0",
"ttttttttttttttttttttttttttttuiipptittttttttttttttteettttttettttp",
"222<:::::<:<:<22<<:::::::::::2226222<:<:<2<2<222:::::::::::::<<2",
"2000066260000652<6662222660600066ew0060660000052:222222226660002",
"w2:<<<::::::;;;r0::<<2<222222<2tt2:<<<<::::::;:00-::<<<<<<<<<<2t",
"t<==;;;;;;;;;;+20=@===========@0t<==;;;;;;;;;;+20=@$%%========@2",
"et0ttttttuuptp@20t0tetettyiuip;2tteuiiiiiiippp@20e0eeeettyyitp;2",
"et2<eeeeeeetyp@20e<<qqqeeeetip;0tt22teeeetetip@20q::666qqeetip;2",
"et2=t0000000ip&2ee:;0000000epd:0tt2=ttt00000pp@20e:=060000wepp;6",
"et2;ttww0000ip*2ee2;000eetttpp;0tt2;ttttte00pp*200:=00000000pp;4",
"tt2;tteee000ip*2tt2;w0eeetetpp:0tt2;ttttttewpp=20e:;0000000epp;2",
"tt2;tttttt00ip*2tt2;teeteeetpp;0tt5;ttttttteip*20e<;0000w00epp;2",
"tt2;ttttte00ii*2tt2;teeettttpp;0tt6;tttttetwii*2re:;e000wettpp;0",
"et2=ewwwww00ii=2tt2;ew0ewrrtps;0tt2;etttw0w0ii=2ee:;00000etrpp;6",
"ti5$@@@@@@@@:p=2tt2@@@@%$@@@<d;0yi6%@$%$$@@@:p=2et2@@@@@@@@@:p;5",
"ti06566522222t=2tt52225099000t,0pi00000099065t=2tt22222252006t;5",
"tieeeew000000e;2uieeq00000ettt:0pietteeeeeeewe;9tt00006000weee:0",
"ptttttttitttttttittttttttttttiitpiittttyiittttttteewtteetttttytt",
"::;;;==;;;;;;;:::::;;;;;;;;;;::::::;;;;;;;;;;,,,;;;;;;;;;;;;;;::"
};
